<?xml version="1.0" standalone="no"?>
<!DOCTYPE svg PUBLIC "-//W3C//DTD SVG 20010904//EN"
 "http://www.w3.org/TR/2001/REC-SVG-20010904/DTD/svg10.dtd">
<svg version="1.0" xmlns="http://www.w3.org/2000/svg"
 width="1396.000000pt" height="1070.000000pt" viewBox="0 0 1396.000000 1070.000000"
 preserveAspectRatio="xMidYMid meet">

<g transform="translate(0.000000,1070.000000) scale(0.100000,-0.100000)"
fill="#000000" stroke="none">
<path d="M0 5350 l0 -5350 6980 0 6980 0 0 5350 0 5350 -6980 0 -6980 0 0
-5350z m1667 1620 l722 -182 742 187 c408 103 748 189 755 192 12 4 14 -254
14 -1591 0 -892 4 -1596 9 -1596 4 0 57 11 117 24 60 13 124 26 142 30 l32 6
0 -129 0 -128 -42 -7 c-66 -11 -340 -81 -473 -121 -445 -135 -929 -359 -1266
-585 -48 -33 -91 -56 -94 -50 -12 20 -198 153 -301 216 -363 220 -863 404
-1411 520 l-83 17 0 150 0 150 43 -7 c23 -4 94 -18 157 -33 63 -14 122 -26
130 -27 13 -1 15 182 18 1580 l2 1582 33 -8 c17 -4 357 -89 754 -190z m3190
-2693 c-1 -529 -2 -96 -2 963 0 1059 1 1492 2 962 2 -529 2 -1395 0 -1925z
m1597 2641 c-22 -73 -11 -68 -149 -68 l-125 0 0 -340 0 -340 -75 0 -75 0 0
340 0 340 -121 0 -120 0 -15 35 c-7 19 -14 39 -14 45 0 7 116 10 351 10 l350
0 -7 -22z m308 -170 l3 -193 182 -3 183 -2 2 192 3 193 73 3 72 3 0 -386 0
-385 -75 0 -75 0 0 150 0 150 -185 0 -185 0 0 -150 0 -150 -75 0 -75 0 0 385
0 385 75 0 75 0 2 -192z m1328 185 c0 -4 -17 -24 -37 -45 l-37 -38 -173 0
-173 0 0 -100 0 -100 200 0 c110 0 200 -3 200 -8 0 -4 -14 -24 -31 -45 l-30
-37 -170 0 -169 0 0 -150 0 -150 183 -1 c100 -1 190 -1 200 0 24 3 21 -16 -9
-56 l-25 -33 -250 0 -249 0 0 378 c0 208 3 382 7 385 9 9 563 9 563 0z m5278
-1079 l30 -6 -82 -142 c-228 -392 -256 -444 -256 -474 0 -38 22 -52 82 -52 58
0 80 17 129 103 51 87 47 83 59 71 15 -15 -74 -161 -113 -185 -26 -16 -44 -19
-93 -16 l-61 4 -7 -91 c-6 -92 -34 -228 -58 -282 -41 -95 -115 -153 -178 -139
-43 9 -80 58 -80 105 0 82 65 256 136 365 l15 23 -47 -14 c-26 -8 -55 -14 -65
-14 -10 0 -31 -12 -46 -26 -36 -33 -108 -70 -166 -85 -97 -24 -201 36 -227
132 -35 130 133 444 256 478 99 28 212 1 257 -60 54 -74 36 -238 -39 -367
l-25 -43 28 7 c41 10 75 29 99 56 19 20 209 342 344 581 45 79 50 82 108 71z
m-6167 -120 c140 -41 244 -153 279 -303 38 -163 -58 -355 -219 -434 -60 -29
-74 -32 -161 -32 -86 0 -101 3 -162 32 -84 40 -151 107 -192 193 -28 59 -31
74 -31 165 0 93 2 105 32 165 87 178 275 266 454 214z m-1258 -231 c83 -128
156 -232 160 -230 5 1 66 106 135 232 l127 230 63 3 62 3 0 -386 0 -385 -70 0
-70 0 -2 278 -3 277 -135 -247 c-74 -136 -138 -248 -141 -248 -3 0 -70 99
-150 220 -79 121 -147 220 -151 220 -4 0 -7 -111 -7 -247 l0 -248 -41 -3 -40
-3 0 386 0 386 55 -2 55 -2 153 -234z m1880 110 c4 -71 7 -189 7 -263 0 -109
4 -143 19 -175 31 -69 104 -115 182 -115 92 0 197 70 218 145 7 24 11 138 11
288 l0 247 41 0 40 0 -3 -277 c-3 -249 -5 -282 -22 -313 -38 -71 -86 -119
-153 -152 -55 -27 -77 -32 -137 -33 -136 0 -258 72 -315 186 l-31 62 0 264 0
263 68 0 69 0 6 -127z m848 98 c14 -16 81 -89 150 -163 69 -73 170 -181 225
-240 l99 -107 5 267 5 267 40 0 40 0 3 -382 2 -383 -52 1 -53 1 -75 82 c-280
304 -395 424 -400 417 -3 -5 -5 -120 -5 -255 l0 -246 -42 0 -43 0 0 385 0 385
39 0 c30 0 43 -6 62 -29z m1413 7 c-22 -73 -11 -68 -149 -68 l-125 0 0 -340 0
-340 -75 0 -75 0 0 340 0 340 -121 0 -120 0 -15 35 c-7 19 -14 39 -14 45 0 7
116 10 351 10 l350 0 -7 -22z m565 -340 c74 -188 140 -358 148 -375 l13 -33
-82 0 -83 0 -29 75 -29 75 -181 -2 -181 -3 -29 -72 -30 -73 -44 0 c-37 0 -44
3 -39 18 3 12 231 576 294 729 5 13 99 22 123 11 8 -3 75 -160 149 -350z m481
-23 l0 -385 -75 0 -75 0 0 378 c0 208 3 382 7 385 3 4 37 7 75 7 l68 0 0 -385z
m364 341 c22 -25 136 -146 251 -270 l210 -225 5 267 5 267 40 0 40 0 3 -382 2
-383 -51 0 c-38 0 -56 5 -68 19 -9 10 -100 108 -202 217 -102 109 -201 216
-218 237 -18 20 -36 37 -40 37 -4 0 -7 -115 -7 -255 l1 -255 -42 0 -43 0 0
385 0 385 36 0 c30 0 43 -8 78 -44z m636 -1152 c160 -36 302 -168 352 -327 82
-257 -76 -544 -337 -612 -168 -43 -335 5 -457 133 -259 271 -136 707 229 807
66 18 131 18 213 -1z m-6077 -14 c94 -15 171 -55 233 -123 30 -33 52 -63 47
-68 -4 -4 -32 -17 -62 -29 l-55 -21 -25 33 c-69 88 -118 113 -226 113 -61 0
-88 -5 -111 -19 -41 -25 -64 -65 -64 -113 0 -63 26 -81 229 -158 230 -87 317
-161 337 -283 16 -103 -53 -206 -172 -253 -51 -20 -77 -23 -189 -24 -123 0
-133 2 -193 29 -74 34 -133 96 -156 163 -9 26 -16 50 -16 54 0 3 19 9 43 13
23 4 51 9 63 12 17 4 24 -2 38 -40 33 -87 123 -137 239 -135 87 1 161 51 173
116 14 75 -25 107 -212 178 -151 56 -229 93 -273 131 -76 64 -97 175 -51 268
62 123 224 186 403 156z m1102 -205 c105 -270 237 -605 264 -673 l21 -53 -101
3 -102 3 -36 92 -36 93 -222 0 c-126 0 -223 -4 -223 -9 0 -5 -16 -48 -36 -95
l-36 -86 -55 0 c-30 0 -53 4 -51 10 2 5 86 216 188 470 l185 460 79 -2 79 -3
82 -210z m685 -205 l0 -420 241 -2 241 -3 -42 -47 -42 -48 -289 0 -289 0 0
470 0 470 90 0 90 0 0 -420z m658 398 c0 -23 257 -686 271 -701 4 -4 36 66 71
155 34 90 99 254 142 366 l79 202 55 0 c30 0 54 -2 54 -5 0 -3 -72 -191 -161
-418 -89 -226 -170 -436 -181 -465 l-20 -53 -81 3 -81 3 -97 250 c-53 138
-135 348 -182 468 l-85 217 108 0 c105 0 108 -1 108 -22z m1297 -193 c105
-270 237 -605 264 -673 l21 -53 -101 3 -102 3 -36 92 -36 93 -222 0 c-126 0
-223 -4 -223 -9 0 -5 -16 -48 -36 -95 l-36 -86 -54 0 c-30 0 -54 2 -54 4 0 2
32 82 70 177 39 96 123 306 188 467 l117 292 79 -2 79 -3 82 -210z m1111 193
c-4 -13 -9 -35 -12 -50 l-6 -28 -154 0 -154 0 0 -420 0 -420 -95 0 -95 0 0
420 0 420 -154 0 -153 0 -7 28 c-3 15 -8 37 -12 50 l-6 22 427 0 427 0 -6 -22z
m374 -448 l0 -470 -90 0 -90 0 0 470 0 470 90 0 90 0 0 -470z m1880 141 l305
-327 3 328 2 328 50 0 50 0 0 -470 0 -470 -55 0 -56 0 -83 88 c-45 48 -176
188 -291 312 -115 124 -213 227 -217 228 -4 2 -8 -138 -8 -312 l0 -316 -50 0
-50 0 0 470 0 470 48 0 47 -1 305 -328z"/>
<path d="M1112 5369 l3 -1491 175 -58 c96 -31 192 -65 213 -73 l38 -17 72 49
c455 307 1059 317 1518 26 55 -35 96 -55 107 -52 9 4 109 37 222 76 l205 69 3
1481 c2 1406 1 1481 -15 1481 -10 -1 -299 -72 -643 -159 l-624 -158 -146 38
c-313 81 -1106 279 -1118 279 -9 0 -12 -315 -10 -1491z m1740 1023 c52 -57 86
-120 102 -187 8 -33 15 -54 15 -47 1 6 5 12 10 12 14 0 41 -77 41 -117 l0 -37
53 56 c28 30 69 67 89 82 47 35 78 98 78 159 0 56 15 61 36 12 19 -47 18 -105
-6 -167 -21 -55 -21 -68 0 -43 36 44 26 -23 -12 -77 -22 -31 -14 -37 14 -11
28 25 29 13 1 -45 -35 -74 -110 -153 -179 -186 l-57 -28 24 -19 c13 -10 56
-34 94 -52 63 -31 135 -93 135 -116 0 -5 -19 0 -42 12 -36 17 -70 21 -203 27
-183 7 -219 19 -277 91 -67 84 -75 90 -102 79 -39 -14 -32 1 24 53 55 52 57
53 103 33 l33 -13 -20 41 c-35 70 -33 149 8 358 6 27 -14 120 -35 160 -10 20
-19 40 -19 43 0 11 56 -34 92 -73z m-402 -832 l0 -180 170 0 170 0 0 -75 0
-75 -170 0 -170 0 0 -365 0 -365 -70 0 -70 0 0 365 0 365 -170 0 -170 0 0 75
0 75 170 0 170 0 0 180 0 180 70 0 70 0 0 -180z m-219 -1120 c20 -6 53 -21 73
-35 48 -32 112 -34 150 -4 52 41 106 49 334 49 l215 0 78 -57 c43 -32 78 -61
79 -65 0 -5 -117 -8 -260 -8 -240 0 -263 -2 -316 -21 -57 -22 -149 -100 -186
-159 l-15 -24 -34 39 c-59 70 -100 105 -153 133 l-51 27 -268 3 c-173 2 -267
7 -265 13 2 6 35 34 73 64 l70 54 220 0 c121 1 236 -4 256 -9z"/>
<path d="M2240 3945 c-8 -2 -49 -9 -90 -15 -78 -13 -260 -69 -319 -99 l-33
-18 56 -31 c30 -18 58 -32 61 -32 3 0 36 22 74 50 58 42 150 91 261 138 24 10
21 13 -10 7z"/>
<path d="M2480 3927 c94 -41 173 -84 239 -130 64 -45 65 -45 95 -30 48 25 106
65 106 73 0 11 -131 57 -230 80 -46 11 -125 22 -175 25 l-90 6 55 -24z"/>
<path d="M2423 3862 c28 -38 63 -88 77 -111 14 -23 32 -52 41 -63 l16 -21 84
26 c46 15 90 31 97 36 25 16 -159 126 -295 177 -35 13 -66 24 -68 24 -3 0 19
-31 48 -68z"/>
<path d="M2294 3867 c-58 -73 -137 -197 -130 -204 3 -4 66 -9 140 -11 132 -4
206 1 206 17 0 11 -114 180 -147 218 l-28 32 -41 -52z"/>
<path d="M2187 3876 c-78 -34 -196 -105 -217 -131 -9 -11 -5 -17 17 -28 51
-27 138 -48 142 -36 3 10 99 154 140 210 19 26 8 24 -82 -15z"/>
<path d="M2883 3771 l-72 -47 54 -53 54 -53 116 50 115 50 -47 30 c-65 41
-126 72 -138 71 -5 0 -42 -22 -82 -48z"/>
<path d="M1699 3758 c-35 -22 -68 -43 -72 -47 -4 -4 31 -25 78 -46 l86 -38 49
48 49 48 -52 31 c-29 18 -57 35 -63 38 -5 4 -39 -11 -75 -34z"/>
<path d="M1875 3660 l-47 -47 107 -57 c59 -31 108 -55 109 -54 1 2 16 34 34
71 22 47 28 69 20 71 -7 2 -50 17 -95 33 l-82 30 -46 -47z"/>
<path d="M2750 3700 c-8 -6 -52 -22 -97 -36 -46 -15 -83 -28 -83 -29 0 -14 72
-156 78 -153 74 34 232 120 232 127 0 10 -96 101 -107 101 -4 0 -15 -5 -23
-10z"/>
<path d="M2105 3558 l-35 -72 33 -20 c17 -11 77 -50 132 -86 55 -36 103 -66
107 -68 5 -3 160 86 255 145 10 6 5 27 -21 87 -19 43 -37 80 -39 82 -2 3 -45
0 -95 -6 -65 -8 -117 -8 -186 -1 -52 6 -100 11 -106 11 -6 0 -26 -32 -45 -72z"/>
<path d="M12650 5591 c-53 -14 -87 -128 -69 -228 14 -72 49 -143 89 -177 17
-14 35 -26 39 -26 9 0 72 134 91 195 20 60 18 146 -3 178 -28 43 -98 71 -147
58z"/>
<path d="M12461 5323 c-52 -104 -66 -166 -51 -223 22 -82 124 -105 209 -45 45
31 80 77 63 83 -23 7 -87 64 -115 103 -17 23 -38 69 -47 103 l-17 61 -42 -82z"/>
<path d="M12968 5105 c-79 -138 -104 -197 -124 -288 -13 -60 -15 -83 -6 -102
16 -35 47 -32 87 8 57 57 110 271 103 417 l-3 65 -57 -100z"/>
<path d="M6981 5637 c-58 -30 -97 -88 -118 -171 -14 -59 -15 -79 -5 -140 30
-172 126 -276 257 -276 98 0 177 61 211 163 22 67 15 214 -14 279 -27 61 -87
127 -137 149 -57 26 -141 25 -194 -4z"/>
<path d="M10337 5397 c-37 -95 -67 -175 -67 -179 0 -5 63 -8 140 -8 77 0 140
2 140 5 0 9 -133 340 -139 347 -3 4 -37 -70 -74 -165z"/>
<path d="M11916 4435 c-119 -42 -186 -157 -186 -318 0 -138 36 -240 113 -324
138 -149 351 -122 442 57 100 198 23 479 -157 569 -69 35 -144 41 -212 16z"/>
<path d="M6863 4132 c-45 -114 -85 -214 -88 -224 -6 -15 10 -16 169 -18 108 0
176 3 176 9 0 11 -161 423 -169 433 -3 4 -43 -86 -88 -200z"/>
<path d="M9503 4132 c-45 -114 -85 -214 -88 -224 -6 -15 10 -16 169 -18 108 0
176 3 176 9 0 11 -161 423 -169 433 -3 4 -43 -86 -88 -200z"/>
</g>
</svg>
