<?xml version="1.0" standalone="no"?>
<!DOCTYPE svg PUBLIC "-//W3C//DTD SVG 20010904//EN"
 "http://www.w3.org/TR/2001/REC-SVG-20010904/DTD/svg10.dtd">
<svg version="1.0" xmlns="http://www.w3.org/2000/svg"
 width="742.000000pt" height="569.000000pt" viewBox="0 0 742.000000 569.000000"
 preserveAspectRatio="xMidYMid meet">

<g transform="translate(0.000000,569.000000) scale(0.100000,-0.100000)"
fill="#000000" stroke="none">
<path d="M405 4081 c-3 -2 -5 -359 -5 -791 l0 -787 -77 18 c-43 10 -81 18 -85
19 -5 0 -8 -34 -8 -75 0 -73 0 -75 28 -81 377 -84 621 -186 857 -358 18 -13
27 -10 100 35 223 140 546 270 793 320 l62 13 0 63 c0 44 -4 63 -12 63 -14 -1
-91 -17 -120 -26 -17 -5 -18 37 -18 794 l0 800 -380 -96 -380 -95 -376 95
c-206 51 -377 92 -379 89z m447 -228 l306 -78 314 78 c172 43 316 77 321 77 4
0 7 -332 7 -739 l0 -739 -105 -36 c-58 -20 -109 -36 -114 -36 -5 0 -35 16 -67
35 -135 81 -337 114 -494 81 -74 -16 -196 -67 -251 -107 l-29 -21 -110 37
-110 37 0 744 c0 588 3 744 13 744 6 0 150 -35 319 -77z m505 -1405 c40 -11
70 -25 67 -29 -3 -5 -19 -16 -36 -25 -29 -15 -32 -15 -60 6 -16 12 -57 35 -91
51 l-62 30 55 -6 c30 -3 88 -16 127 -27z m-333 -9 c-33 -17 -67 -38 -77 -46
-16 -15 -21 -15 -49 -1 l-32 15 24 13 c32 18 138 48 169 49 16 1 5 -8 -35 -30z
m44 -39 c-22 -33 -43 -60 -47 -60 -23 0 -71 24 -68 34 3 9 139 86 152 86 2 0
-15 -27 -37 -60z m111 3 c23 -31 41 -60 41 -65 0 -4 -38 -8 -85 -8 -47 0 -85
3 -85 8 0 12 77 122 85 122 2 0 22 -25 44 -57z m36 41 c50 -21 115 -62 115
-73 0 -9 -53 -31 -76 -31 -7 0 -31 27 -53 60 -23 33 -37 60 -32 60 5 0 25 -7
46 -16z m290 -58 l40 -24 -59 -26 -59 -26 -24 22 c-30 28 -29 32 10 57 40 26
44 26 92 -3z m-622 -4 l27 -18 -25 -24 c-22 -21 -27 -22 -57 -10 -50 20 -52
25 -16 48 40 26 37 26 71 4z m465 -108 l-63 -32 -13 32 c-7 17 -14 35 -15 39
-1 5 21 16 48 26 l50 17 28 -25 28 -25 -63 -32z m-356 57 l28 -10 -17 -35 -16
-35 -51 26 c-65 32 -62 29 -40 54 19 21 40 21 96 0z m260 -53 c9 -18 17 -36
18 -39 0 -7 -117 -79 -129 -79 -5 0 -37 19 -73 43 l-64 42 14 35 13 36 102 -3
101 -3 18 -32z"/>
<path d="M1355 3720 c16 -24 13 -281 -2 -275 -7 2 -25 -7 -40 -20 -22 -19 -24
-24 -11 -25 9 0 27 -14 39 -31 29 -42 73 -58 150 -58 35 1 77 -4 92 -10 46
-18 18 18 -39 50 -27 15 -48 30 -47 34 1 3 17 16 35 28 44 30 108 127 66 101
-7 -5 -8 -3 -3 6 12 19 17 128 7 147 -7 12 -11 8 -16 -19 -4 -22 -23 -50 -55
-82 l-48 -48 -7 27 c-4 15 -11 32 -17 38 -5 7 -22 36 -37 66 -15 30 -38 62
-52 70 -21 14 -23 14 -15 1z"/>
<path d="M1120 3280 l0 -90 -85 0 -85 0 0 -35 0 -35 85 0 85 0 2 -182 3 -183
33 -3 32 -3 0 185 0 186 85 0 85 0 0 35 0 35 -85 0 -85 0 0 90 0 90 -35 0 -35
0 0 -90z"/>
<path d="M830 2715 c-11 -13 3 -15 117 -15 135 0 158 -6 192 -53 13 -18 15
-17 48 15 l34 33 136 5 c117 4 134 7 120 19 -13 10 -46 12 -136 10 -117 -4
-120 -5 -150 -33 l-31 -30 -22 22 c-37 34 -73 42 -187 42 -84 0 -111 -3 -121
-15z"/>
<path d="M775 2670 c-4 -6 40 -10 125 -10 149 0 182 -10 228 -66 l28 -33 26
33 c45 56 79 66 227 66 86 0 131 4 131 11 0 7 -49 9 -155 7 l-154 -3 -39 -38
-39 -38 -19 23 c-43 54 -58 58 -211 58 -84 0 -144 -4 -148 -10z"/>
<path d="M2380 3126 c0 -633 3 -967 10 -971 7 -4 10 320 10 964 0 641 -3 971
-10 971 -7 0 -10 -328 -10 -964z"/>
<path d="M2850 3950 c0 -18 7 -20 65 -20 l65 0 2 -172 3 -173 35 0 35 0 3 172
2 172 63 3 c49 2 62 6 65 21 3 16 -10 17 -167 17 -164 0 -171 -1 -171 -20z"/>
<path d="M3270 3775 l0 -196 38 3 37 3 5 75 5 75 85 0 85 0 5 -75 5 -75 35 0
35 0 3 193 2 192 -40 0 -40 0 0 -95 0 -95 -90 0 -89 0 -3 93 -3 92 -37 3 -38
3 0 -196z"/>
<path d="M3730 3775 l0 -195 124 0 c121 0 124 1 140 25 l16 25 -105 0 -105 0
0 75 0 75 90 0 c79 0 91 2 100 20 10 18 6 19 -87 22 l-98 3 0 50 0 50 89 3
c84 3 116 12 116 33 0 5 -63 9 -140 9 l-140 0 0 -195z"/>
<path d="M6572 3348 c-26 -46 -70 -120 -97 -166 -31 -54 -59 -89 -78 -99 -28
-14 -29 -14 -22 3 44 104 47 163 10 199 -35 36 -111 35 -154 0 -64 -54 -110
-191 -81 -244 25 -47 105 -50 170 -7 19 12 47 26 63 30 l28 7 -31 -62 c-17
-33 -34 -82 -37 -108 -5 -42 -3 -50 17 -64 17 -12 28 -13 52 -5 39 14 67 74
81 175 l10 73 34 0 c36 0 63 21 88 69 23 46 2 37 -24 -9 -22 -40 -56 -58 -86
-46 -27 10 -16 41 65 182 44 76 80 142 80 146 0 5 -9 8 -20 8 -14 0 -33 -24
-68 -82z m-216 -74 c22 -21 25 -31 19 -62 -4 -20 -16 -58 -27 -84 -18 -42 -22
-46 -40 -37 -28 15 -48 69 -48 128 0 80 46 106 96 55z m-126 -104 c0 -11 19
-41 42 -66 l43 -46 -24 -19 c-35 -29 -68 -34 -96 -15 -31 20 -33 63 -5 124 20
45 40 55 40 22z m240 -215 c-16 -77 -67 -134 -83 -92 -8 22 22 119 56 176 l32
56 3 -43 c2 -24 -2 -67 -8 -97z"/>
<path d="M2810 3175 c0 -187 1 -195 20 -195 18 0 20 8 22 128 l3 127 73 -107
c40 -60 74 -108 77 -108 2 0 31 51 65 113 34 61 66 116 71 121 5 6 9 -47 9
-133 l0 -142 33 3 32 3 0 190 0 190 -31 3 c-30 3 -33 -1 -93 -112 -35 -64 -66
-116 -70 -116 -3 0 -40 52 -81 115 -66 100 -78 115 -102 115 l-28 0 0 -195z"/>
<path d="M3435 3353 c-70 -37 -108 -99 -108 -178 0 -144 147 -237 273 -172 68
34 103 85 108 157 9 120 -72 210 -187 210 -31 -1 -69 -8 -86 -17z m146 -50
c86 -73 77 -227 -15 -272 -42 -20 -98 0 -133 45 -32 42 -43 135 -23 184 30 72
112 93 171 43z"/>
<path d="M3800 3247 c0 -107 3 -128 23 -167 53 -106 185 -130 266 -49 41 41
51 83 51 222 0 110 -1 117 -20 117 -11 0 -20 -6 -21 -12 0 -7 0 -60 0 -118 0
-129 -12 -169 -59 -193 -44 -23 -105 -17 -134 12 -19 20 -21 35 -24 166 l-3
145 -40 0 -39 0 0 -123z"/>
<path d="M4250 3175 c0 -188 1 -195 20 -195 19 0 20 7 20 133 l1 132 125 -132
c76 -80 134 -133 145 -133 18 0 19 10 19 195 0 187 -1 195 -20 195 -18 0 -20
-8 -22 -134 l-3 -133 -124 133 c-72 77 -132 134 -143 134 -17 0 -18 -13 -18
-195z"/>
<path d="M4670 3350 c0 -18 7 -20 65 -20 l65 0 2 -172 3 -173 35 0 35 0 3 172
2 172 63 3 c49 2 62 6 65 21 3 16 -10 17 -167 17 -164 0 -171 -1 -171 -20z"/>
<path d="M5086 3181 c-42 -105 -76 -193 -76 -196 0 -3 9 -5 21 -5 15 0 25 11
36 40 l16 40 91 0 91 0 17 -40 c15 -36 20 -40 52 -40 23 0 36 5 35 13 0 6 -33
93 -72 192 -71 176 -73 180 -104 183 l-31 3 -76 -190z m123 19 c17 -43 31 -84
31 -90 0 -6 -27 -10 -65 -10 -45 0 -65 4 -65 13 0 13 60 167 65 167 2 0 17
-36 34 -80z"/>
<path d="M5460 3176 l0 -196 35 0 c45 0 46 5 43 215 l-3 170 -37 3 -38 3 0
-195z"/>
<path d="M5660 3175 c0 -188 1 -195 20 -195 19 0 20 7 20 133 l1 132 125 -132
c76 -80 134 -133 145 -133 18 0 19 10 19 195 0 187 -1 195 -20 195 -18 0 -20
-8 -22 -134 l-3 -133 -124 133 c-73 79 -132 134 -142 134 -18 0 -19 -12 -19
-195z"/>
<path d="M5900 2767 c-49 -16 -133 -102 -148 -153 -46 -156 66 -314 223 -314
128 0 235 109 235 240 0 161 -156 275 -310 227z m124 -57 c51 -24 83 -71 95
-135 18 -97 -12 -174 -83 -209 -51 -25 -100 -15 -147 33 -45 44 -63 103 -57
184 5 66 27 103 79 129 44 23 63 23 113 -2z"/>
<path d="M2863 2750 c-112 -51 -107 -173 10 -224 28 -13 79 -34 111 -47 67
-27 82 -44 72 -82 -8 -34 -39 -50 -94 -49 -49 0 -88 22 -104 58 -13 27 -55 34
-64 9 -10 -24 28 -77 70 -98 75 -39 203 -22 255 34 25 27 28 86 7 128 -19 36
-51 57 -149 96 -121 49 -140 73 -92 120 18 19 35 25 70 25 38 0 51 -6 85 -36
36 -33 43 -36 65 -26 33 15 32 24 -10 60 -60 54 -156 67 -232 32z"/>
<path d="M3350 2582 c-41 -103 -83 -206 -92 -229 l-18 -43 29 0 c24 0 31 6 46
45 l17 46 111 -3 110 -3 15 -42 c15 -40 17 -41 64 -45 43 -3 48 -1 44 15 -2 9
-42 114 -88 232 l-83 215 -40 0 -40 0 -75 -188z m98 -130 c-44 -2 -83 0 -86 3
-5 4 22 79 66 185 l15 35 43 -110 43 -110 -81 -3z"/>
<path d="M3800 2540 l0 -230 146 0 c128 0 148 2 160 18 7 9 14 20 14 25 0 4
-52 7 -115 7 l-115 0 0 205 0 205 -45 0 -45 0 0 -230z"/>
<path d="M4114 2753 c4 -10 44 -113 89 -230 74 -191 84 -212 107 -215 53 -8
57 -2 126 175 37 95 77 198 90 230 l23 57 -29 0 c-27 0 -30 -6 -85 -147 -32
-82 -64 -164 -72 -183 l-14 -35 -72 183 -72 182 -49 0 c-42 0 -47 -2 -42 -17z"/>
<path d="M4670 2582 c-41 -103 -83 -206 -92 -229 l-18 -43 29 0 c24 0 31 6 46
45 l17 46 111 -3 110 -3 16 -42 c15 -43 16 -43 64 -43 43 0 48 2 43 18 -4 9
-44 113 -89 229 l-82 213 -40 0 -40 0 -75 -188z m98 -130 c-44 -2 -83 0 -86 3
-5 4 22 79 66 185 l15 35 43 -110 43 -110 -81 -3z"/>
<path d="M5009 2748 c7 -21 16 -23 85 -26 l76 -3 0 -204 0 -205 45 0 45 0 0
205 0 204 76 3 c69 3 78 5 85 26 l8 22 -214 0 -214 0 8 -22z"/>
<path d="M5520 2541 l0 -229 45 -4 45 -3 0 232 0 233 -45 0 -45 0 0 -229z"/>
<path d="M6350 2540 l0 -230 25 0 24 0 3 154 3 154 143 -154 c122 -131 148
-154 173 -154 l29 0 0 230 0 230 -25 0 -25 0 -2 -160 -3 -161 -149 161 c-111
119 -155 160 -172 160 l-24 0 0 -230z"/>
</g>
</svg>
