<?xml version="1.0" standalone="no"?>
<!DOCTYPE svg PUBLIC "-//W3C//DTD SVG 20010904//EN"
 "http://www.w3.org/TR/2001/REC-SVG-20010904/DTD/svg10.dtd">
<svg version="1.0" xmlns="http://www.w3.org/2000/svg"
 width="804.000000pt" height="804.000000pt" viewBox="0 0 804.000000 804.000000"
 preserveAspectRatio="xMidYMid meet">

<g transform="translate(0.000000,804.000000) scale(0.100000,-0.100000)"
fill="#000000" stroke="none">
<path d="M5420 7359 c-74 -23 -107 -46 -50 -35 19 4 52 10 73 13 l37 6 -1 -89
c0 -98 -9 -138 -25 -114 -8 13 -61 15 -341 15 -182 0 -329 -4 -326 -9 3 -4 -4
-5 -15 -2 -11 4 -85 -9 -165 -29 -164 -39 -177 -41 -177 -20 0 13 -23 15 -50
5 -3 -1 -9 -3 -15 -5 -5 -1 -14 -3 -20 -5 -5 -1 -14 -3 -20 -4 -5 -1 -54 -12
-108 -26 l-97 -24 -163 38 c-89 21 -212 52 -273 68 -60 16 -118 30 -127 32 -9
1 -20 5 -23 9 -4 4 -17 7 -28 7 -12 0 -70 13 -131 29 -177 47 -297 74 -335 77
l-35 3 27 -14 c15 -8 35 -17 45 -18 10 -2 25 -7 33 -10 8 -3 92 -26 185 -52
94 -26 173 -50 177 -54 4 -3 -151 -5 -344 -3 -233 3 -354 0 -361 -7 -10 -10
-13 -268 -4 -278 8 -7 186 -7 194 1 5 4 10 50 11 102 2 52 7 94 10 94 12 0 38
-20 27 -20 -7 0 -10 -445 -10 -1315 0 -1302 0 -1314 20 -1329 11 -9 15 -16 9
-16 -5 0 -15 5 -22 12 -9 9 -12 8 -12 -6 0 -9 -4 -15 -9 -12 -5 4 -9 303 -9
721 0 393 -3 719 -7 725 -3 6 -48 10 -105 10 -81 0 -99 -3 -104 -16 -3 -9 -6
-309 -6 -667 0 -357 -1 -651 -2 -652 -2 -2 -61 10 -133 26 -71 15 -138 29
-147 29 -16 0 -18 -13 -18 -129 l0 -130 58 -11 c31 -6 100 -20 152 -32 52 -11
95 -17 97 -12 3 10 460 10 519 0 36 -6 38 -5 20 9 -25 19 -24 19 49 -4 172
-55 499 -217 663 -328 67 -45 81 -50 99 -32 7 7 78 48 159 93 110 60 152 89
164 111 9 17 35 40 58 53 23 13 42 27 42 32 0 4 -13 20 -30 33 l-30 26 -61
-25 c-34 -13 -77 -26 -95 -30 -39 -7 -41 -17 -14 -62 23 -37 26 -62 8 -62 -7
0 -24 24 -38 53 -25 52 -25 52 -65 47 -60 -7 -203 -6 -260 3 l-51 7 -22 -45
c-12 -25 -26 -45 -30 -45 -20 0 -20 15 -2 51 11 21 20 40 20 42 0 1 -38 16
-85 32 l-84 29 -31 -29 c-22 -21 -33 -26 -41 -18 -9 9 -4 18 17 36 16 14 27
27 24 29 -3 2 -28 18 -56 35 l-52 31 -44 -29 c-38 -25 -49 -28 -72 -20 -14 6
-26 15 -26 20 0 6 26 26 58 45 226 139 501 202 764 177 206 -20 365 -72 540
-178 33 -20 63 -31 70 -27 7 4 96 36 198 70 l185 62 2 1283 c2 706 -1 1287 -5
1291 -5 5 -89 -12 -188 -38 -98 -25 -213 -54 -254 -64 -41 -10 -129 -32 -194
-49 -65 -17 -127 -31 -137 -31 -27 0 -24 38 4 50 21 9 239 63 602 150 94 22
178 43 188 46 15 5 17 -3 17 -78 0 -131 -3 -126 102 -130 49 -2 93 1 96 6 17
28 21 -74 21 -531 l1 -502 -107 -3 -108 -3 -3 -716 -2 -716 -63 -22 c-270 -95
-397 -144 -397 -154 0 -4 9 -3 20 3 11 6 32 8 47 5 24 -5 25 -4 8 5 -15 8 -11
9 21 4 30 -4 46 -1 57 10 18 18 43 21 52 6 9 -14 125 -13 125 1 0 11 228 6
266 -7 14 -4 15 -3 5 4 -9 7 -10 12 -2 16 6 4 18 0 27 -9 19 -18 20 -17 -26
-35 -42 -16 -60 -29 -60 -42 0 -7 5 -7 13 -1 6 5 30 11 52 12 21 2 77 14 122
27 46 13 86 24 89 24 4 0 1 6 -5 13 -14 17 -4 27 26 27 13 0 44 5 69 11 l44
11 0 109 0 110 -64 -7 c-36 -4 -73 -3 -83 1 -10 4 -33 7 -50 6 l-33 -3 0 1431
c0 1356 -1 1431 -17 1430 -10 0 -47 -9 -83 -20z m-1593 -485 c-3 -3 -12 -4
-19 -1 -8 3 -5 6 6 6 11 1 17 -2 13 -5z m51 -6 c9 -9 74 -12 237 -13 124 0
226 3 227 6 2 3 19 9 38 13 32 6 33 5 15 -7 -11 -7 -77 -28 -147 -46 -115 -30
-131 -32 -180 -21 -96 20 -212 57 -216 69 -5 15 11 14 26 -1z m628 -190 c60
-55 99 -112 115 -168 7 -25 21 -55 31 -66 12 -13 21 -43 25 -76 l5 -55 65 64
c35 34 68 63 73 63 21 0 60 87 60 134 0 57 18 58 39 2 14 -37 8 -112 -13 -171
l-8 -20 17 20 c17 19 17 19 12 -19 -4 -21 -13 -46 -22 -56 -22 -24 -18 -36 5
-15 30 27 31 16 2 -44 -32 -69 -98 -135 -163 -166 l-50 -23 28 -20 c15 -10 54
-31 85 -46 50 -24 126 -91 115 -102 -2 -2 -24 3 -48 12 -29 11 -92 19 -185 23
-132 6 -143 8 -183 34 -23 15 -56 48 -73 73 -27 37 -37 44 -65 44 -18 0 -33 3
-32 8 0 4 21 25 46 46 42 38 46 39 83 29 l39 -10 -21 41 c-26 50 -27 132 -3
235 20 86 16 151 -14 210 -38 73 -29 78 35 19z m-346 -1172 c5 -554 4 -582
-30 -561 -11 7 -15 1097 -3 1109 25 25 28 -23 33 -548z m-80 -7 c0 -374 -3
-550 -10 -547 -7 2 -12 187 -16 551 -5 490 -3 547 10 547 14 0 16 -60 16 -551z
m-226 220 c22 0 35 -3 29 -6 -16 -6 -17 -75 -2 -90 7 -7 -10 -12 -57 -16 -37
-4 -71 -4 -75 -1 -11 6 -12 108 -2 118 5 4 21 5 37 2 16 -3 47 -6 70 -7z m514
5 c19 -6 22 -13 22 -60 0 -52 -1 -53 -32 -59 -18 -3 -64 -5 -103 -3 l-70 3 -3
49 c-5 74 -3 76 85 76 43 0 88 -3 101 -6z m102 -64 c0 -43 -3 -58 -12 -55 -8
3 -13 25 -13 60 0 37 4 55 13 55 8 0 12 -19 12 -60z m-453 -788 c22 -12 52
-36 66 -54 l25 -32 26 31 c15 17 48 42 74 55 44 21 61 23 252 26 l205 2 30
-25 30 -25 -175 0 c-267 0 -350 -21 -414 -104 l-26 -35 -46 49 c-69 74 -100
82 -354 87 l-214 6 29 24 28 25 211 -4 c194 -3 214 -5 253 -26z m-31 -74 c17
-9 52 -40 77 -68 l46 -51 36 44 c21 25 56 55 79 68 39 23 51 24 285 29 195 4
250 2 273 -9 15 -7 28 -17 28 -22 0 -4 -109 -9 -242 -11 -242 -3 -243 -3 -299
-31 -53 -25 -120 -86 -147 -133 -12 -19 -12 -19 -27 1 -44 57 -106 111 -155
134 -54 25 -61 26 -292 29 -131 2 -238 7 -238 11 0 4 14 14 30 22 47 22 502
11 546 -13z m1574 -528 c-8 -5 -19 -10 -25 -10 -5 0 -3 5 5 10 8 5 20 10 25
10 6 0 3 -5 -5 -10z m-630 -20 c0 -5 -5 -10 -11 -10 -5 0 -7 5 -4 10 3 6 8 10
11 10 2 0 4 -4 4 -10z m535 0 c3 -5 1 -10 -4 -10 -6 0 -11 5 -11 10 0 6 2 10
4 10 3 0 8 -4 11 -10z m52 4 c-3 -3 -12 -4 -19 -1 -8 3 -5 6 6 6 11 1 17 -2
13 -5z"/>
<path d="M4818 7163 c7 -3 16 -2 19 1 4 3 -2 6 -13 5 -11 0 -14 -3 -6 -6z"/>
<path d="M4170 4443 c0 -4 31 -20 69 -36 37 -15 105 -52 151 -82 46 -30 86
-55 90 -55 16 0 120 74 113 80 -17 16 -201 68 -278 79 -44 6 -95 14 -112 17
-18 3 -33 1 -33 -3z"/>
<path d="M3889 4425 c-70 -14 -234 -67 -276 -89 l-26 -13 45 -27 c25 -14 50
-26 57 -26 7 0 33 16 59 36 26 20 89 56 140 81 120 59 120 62 1 38z"/>
<path d="M4110 4416 c0 -3 22 -34 50 -70 27 -36 61 -86 75 -110 l26 -44 47 12
c79 21 122 40 119 51 -5 18 -129 94 -202 124 -82 34 -115 44 -115 37z"/>
<path d="M3930 4374 c-83 -39 -200 -112 -200 -125 0 -8 121 -49 146 -49 8 0
14 4 14 8 0 11 58 99 98 149 51 65 47 66 -58 17z"/>
<path d="M4041 4374 c-18 -20 -53 -67 -79 -106 -35 -53 -43 -71 -33 -78 38
-23 291 -21 291 2 0 15 -106 173 -145 216 -1 1 -17 -14 -34 -34z"/>
<path d="M4625 4321 c-6 -5 -36 -25 -67 -44 l-57 -34 34 -33 34 -33 83 39 c46
21 87 41 91 45 5 3 -17 20 -47 38 -63 35 -59 34 -71 22z"/>
<path d="M4755 4200 c-3 -5 -1 -10 4 -10 6 0 11 5 11 10 0 6 -2 10 -4 10 -3 0
-8 -4 -11 -10z"/>
<path d="M3010 4135 c0 -3 7 -13 15 -21 8 -9 15 -12 15 -8 0 5 5 3 12 -4 7 -7
19 -12 27 -12 15 0 198 -68 216 -80 6 -4 55 -24 110 -45 55 -21 107 -44 115
-50 8 -7 49 -29 90 -50 41 -20 85 -42 97 -49 13 -6 23 -14 23 -18 0 -5 5 -8
12 -8 15 0 198 -122 273 -182 l59 -48 26 25 c14 14 87 61 161 104 137 82 175
108 165 118 -3 3 -20 0 -38 -8 -41 -16 -231 -132 -278 -169 l-35 -27 -98 73
c-193 146 -501 307 -747 392 -80 27 -154 52 -165 55 -11 2 -28 8 -37 12 -10 4
-18 4 -18 0z"/>
<path d="M3420 3131 c0 -23 32 -32 102 -29 l73 3 3 -222 2 -223 40 0 40 0 2
223 3 222 77 -3 c69 -2 78 0 88 18 11 20 8 20 -210 20 -121 0 -220 -4 -220 -9z"/>
<path d="M3970 2900 l0 -240 40 0 40 0 0 94 c0 112 -4 109 133 105 148 -5 137
4 137 -105 l0 -94 40 0 40 0 0 240 0 240 -40 0 -39 0 -3 -122 -3 -123 -130 0
-130 0 -3 123 -3 122 -39 0 -40 0 0 -240z"/>
<path d="M4570 2900 l0 -240 158 0 c146 0 158 1 169 20 12 19 9 19 -120 22
l-132 3 -2 97 c-1 58 3 100 9 104 5 4 59 6 118 5 100 -2 110 0 120 18 10 20 7
20 -117 23 l-128 3 0 70 0 70 116 3 c101 2 119 5 134 22 18 20 17 20 -153 20
l-172 0 0 -240z"/>
<path d="M6599 2388 c-130 -223 -189 -316 -204 -322 -8 -3 -14 -13 -13 -23 1
-10 -14 -52 -34 -93 -20 -41 -39 -98 -43 -127 -6 -44 -4 -54 14 -72 22 -22 56
-28 66 -11 3 6 -3 10 -14 10 -13 0 -21 8 -23 23 -5 32 9 106 28 147 31 65 95
170 104 170 6 0 10 -15 11 -32 1 -31 1 -31 8 -8 4 14 3 35 -2 47 -10 22 2 46
160 311 45 76 52 102 29 102 -8 0 -47 -55 -87 -122z"/>
<path d="M2556 2429 c-148 -36 -228 -205 -162 -344 43 -92 123 -141 226 -138
79 2 126 23 170 78 46 57 60 96 60 167 0 160 -142 274 -294 237z m130 -55 c66
-43 88 -86 92 -181 5 -107 -19 -166 -82 -194 -124 -56 -233 29 -253 200 -8 69
50 173 107 194 39 14 97 6 136 -19z"/>
<path d="M1700 2190 c0 -233 1 -240 20 -240 19 0 20 7 20 160 0 134 2 160 15
160 8 0 20 -10 26 -22 20 -38 162 -248 168 -248 7 0 98 161 145 253 49 97 56
82 56 -123 l0 -180 30 0 30 0 0 240 0 240 -30 0 c-27 0 -34 -8 -87 -106 -79
-143 -111 -194 -123 -194 -5 0 -55 68 -110 150 -92 137 -103 150 -130 150
l-30 0 0 -240z"/>
<path d="M3000 2273 c0 -132 3 -164 19 -198 36 -79 117 -129 203 -126 63 2 89
13 133 56 59 59 59 65 56 373 -1 39 -5 52 -16 52 -13 0 -15 -24 -15 -158 0
-146 -2 -162 -23 -203 -55 -106 -207 -105 -259 1 -14 29 -17 65 -18 198 l0
162 -40 0 -40 0 0 -157z"/>
<path d="M3590 2190 c0 -233 1 -240 20 -240 19 0 20 7 20 165 0 91 4 165 8
165 12 0 260 -264 289 -307 10 -15 25 -23 44 -23 l29 0 0 240 c0 233 -1 240
-20 240 -19 0 -20 -7 -20 -170 0 -136 -3 -170 -13 -170 -8 0 -38 28 -67 63
-88 104 -259 277 -275 277 -13 0 -15 -34 -15 -240z"/>
<path d="M4132 2413 c3 -15 16 -18 86 -21 l82 -3 0 -219 0 -220 40 0 40 0 0
220 0 219 82 3 c70 3 83 6 86 21 3 16 -12 17 -208 17 -196 0 -211 -1 -208 -17z"/>
<path d="M4764 2422 c-6 -4 -27 -50 -48 -102 -20 -52 -41 -104 -46 -115 -5
-11 -21 -49 -36 -85 -14 -36 -35 -84 -45 -107 -24 -52 -24 -63 -1 -63 11 0 25
18 39 50 l22 50 120 0 c130 0 129 0 146 -60 10 -33 13 -35 59 -38 37 -2 47 0
43 10 -3 7 -42 105 -87 218 -103 261 -98 250 -129 250 -14 0 -31 -4 -37 -8z
m31 -124 c25 -56 75 -189 75 -199 0 -5 -45 -9 -100 -9 -55 0 -100 3 -100 8 0
4 9 32 21 62 12 30 27 72 35 93 17 45 36 77 47 77 4 0 14 -15 22 -32z"/>
<path d="M5150 2190 l0 -240 39 0 38 0 5 198 c2 108 2 216 0 240 -4 42 -5 42
-43 42 l-39 0 0 -240z"/>
<path d="M5420 2190 c0 -233 1 -240 20 -240 19 0 20 7 20 165 0 140 2 165 15
165 8 0 15 -3 15 -8 0 -8 76 -95 171 -197 31 -33 69 -75 84 -92 20 -23 37 -33
57 -33 l28 0 0 240 c0 233 -1 240 -20 240 -19 0 -20 -7 -20 -170 0 -137 -3
-170 -14 -170 -12 0 -97 88 -241 250 -119 134 -115 139 -115 -150z"/>
<path d="M6189 2342 c-40 -17 -111 -127 -135 -207 -18 -64 -9 -120 23 -146 15
-13 15 -12 4 10 -18 34 -9 100 24 166 30 62 47 66 56 13 6 -41 41 -93 72 -109
18 -10 17 -7 -6 16 -41 42 -63 126 -48 188 6 28 19 56 29 63 18 14 8 17 -19 6z"/>
<path d="M6321 2321 c35 -35 38 -73 10 -153 -25 -74 -45 -111 -84 -155 -27
-31 -28 -34 -9 -24 13 7 41 30 61 50 41 41 81 139 81 199 0 42 -25 87 -57 101
-34 16 -35 14 -2 -18z"/>
<path d="M6409 1763 c-13 -16 -12 -17 4 -4 9 7 17 15 17 17 0 8 -8 3 -21 -13z"/>
<path d="M5633 1603 c-24 -8 -43 -19 -43 -24 0 -5 -6 -9 -13 -9 -35 0 -110
-110 -132 -192 -12 -46 -12 -61 1 -113 17 -64 51 -131 81 -155 90 -73 94 -75
185 -78 75 -3 94 -1 133 18 134 65 196 181 173 328 -26 169 -221 283 -385 225z
m162 -52 c80 -37 126 -115 133 -224 7 -124 -36 -209 -123 -243 -56 -21 -108
-15 -163 20 -72 45 -118 180 -101 296 10 68 57 141 99 156 51 18 109 16 155
-5z"/>
<path d="M1788 1592 c-64 -23 -104 -60 -116 -106 -25 -88 19 -144 154 -195
185 -70 215 -93 198 -153 -15 -50 -55 -73 -128 -73 -52 0 -70 5 -105 28 -28
19 -44 37 -47 57 -6 26 -8 28 -33 19 -14 -6 -28 -10 -31 -9 -14 4 -8 -20 13
-50 51 -78 157 -112 264 -87 76 18 119 43 144 83 24 40 24 75 -1 124 -26 51
-75 83 -201 131 -57 21 -113 49 -126 61 -30 28 -30 69 0 104 19 22 34 28 79
32 72 6 119 -11 157 -54 29 -33 32 -34 62 -21 l32 13 -32 37 c-25 27 -49 42
-98 57 -79 24 -123 25 -185 2z"/>
<path d="M2464 1573 c-9 -21 -22 -54 -29 -74 -7 -20 -18 -45 -24 -55 -5 -11
-36 -82 -67 -159 -31 -77 -66 -166 -79 -197 l-24 -58 25 0 c22 0 30 10 51 60
l26 60 124 1 c67 1 133 2 145 2 23 2 27 -3 58 -75 l20 -48 51 0 c44 0 49 2 41
18 -5 9 -12 31 -15 49 -4 17 -15 51 -25 75 -36 83 -125 302 -153 378 -19 52
-28 60 -70 60 -35 0 -40 -3 -55 -37z m70 -155 c15 -40 38 -98 52 -129 39 -92
42 -89 -96 -89 -79 0 -120 4 -120 11 0 6 14 41 30 79 17 38 30 71 30 75 0 3 8
25 19 48 10 23 21 50 24 60 13 35 34 16 61 -55z"/>
<path d="M2960 1608 c0 -2 -1 -132 -3 -291 l-2 -287 181 0 182 0 16 26 c13 18
14 25 4 23 -7 -1 -73 -1 -145 0 l-133 1 -2 263 -3 262 -47 3 c-27 2 -48 2 -48
0z"/>
<path d="M3377 1548 c13 -35 33 -85 43 -113 17 -46 79 -204 99 -250 5 -11 21
-50 36 -87 l27 -68 43 0 c47 0 56 12 85 105 7 22 16 45 20 50 4 6 11 21 15 35
4 14 13 39 21 55 26 59 124 314 124 325 0 5 -11 10 -25 10 -14 0 -25 -5 -25
-11 0 -5 -8 -29 -18 -52 -11 -23 -50 -122 -88 -219 -66 -169 -86 -202 -101
-160 -15 42 -156 399 -165 420 -10 19 -19 22 -64 22 l-53 0 26 -62z"/>
<path d="M4165 1602 c-6 -4 -21 -34 -34 -67 -40 -101 -171 -418 -187 -452 -20
-44 -18 -55 12 -51 21 2 30 13 47 58 l22 55 140 5 c159 6 161 5 186 -68 l16
-47 50 -3 51 -3 -8 33 c-9 37 -35 112 -50 143 -9 20 -20 48 -106 265 -27 69
-53 128 -59 132 -5 4 -23 8 -40 8 -16 0 -35 -4 -40 -8z m50 -184 c16 -40 32
-77 36 -83 3 -5 12 -28 19 -50 7 -22 17 -45 22 -52 5 -7 7 -17 3 -23 -8 -14
-232 -14 -240 0 -4 6 0 21 7 33 8 12 34 73 58 135 24 61 49 112 55 112 7 0 25
-33 40 -72z"/>
<path d="M4490 1597 c0 -29 25 -37 117 -37 l93 0 0 -266 0 -265 51 3 50 3 2
260 2 260 99 5 c91 5 99 7 107 28 l8 22 -264 0 c-211 0 -265 -3 -265 -13z"/>
<path d="M5150 1603 c0 -5 -2 -135 -3 -291 l-2 -282 53 0 52 0 0 290 -1 290
-50 0 c-27 0 -49 -3 -49 -7z"/>
<path d="M6190 1319 l0 -290 26 3 26 3 1 194 c1 120 6 196 12 198 6 2 95 -87
198 -197 162 -172 192 -200 218 -200 l29 0 0 290 c0 283 0 290 -20 290 -19 0
-20 -7 -20 -205 0 -165 -3 -205 -13 -205 -8 0 -58 46 -112 103 -54 56 -143
148 -197 205 -73 75 -105 102 -123 102 l-25 0 0 -291z"/>
</g>
</svg>
